<?xml version="1.0" encoding="UTF-8" standalone="no"?>
<!-- Created with Inkscape (http://www.inkscape.org/) -->

<svg
   version="1.1"
   id="svg2"
   xml:space="preserve"
   width="16"
   height="16"
   viewBox="0 0 36.8 36.8"
   sodipodi:docname="lektion-bullet.svg"
   inkscape:version="1.1.2 (b8e25be833, 2022-02-05)"
   xmlns:inkscape="http://www.inkscape.org/namespaces/inkscape"
   xmlns:sodipodi="http://sodipodi.sourceforge.net/DTD/sodipodi-0.dtd"
   xmlns="http://www.w3.org/2000/svg"
   xmlns:svg="http://www.w3.org/2000/svg"><defs
     id="defs6"><clipPath
       clipPathUnits="userSpaceOnUse"
       id="clipPath18"><path
         d="M 3929.84,1.08203 H 5386.9 V 5670.372 H 3929.84 Z"
         clip-rule="evenodd"
         id="path16" /></clipPath><clipPath
       clipPathUnits="userSpaceOnUse"
       id="clipPath30"><path
         d="M 1.07813,1.08203 H 3893.9681 V 5670.372 H 1.07813 Z"
         clip-rule="evenodd"
         id="path28" /></clipPath><clipPath
       clipPathUnits="userSpaceOnUse"
       id="clipPath3932"><path
         d="m 4704.93,5049.4 h 7.7539 v 22.207 h -7.7539 z"
         id="path3930" /></clipPath><clipPath
       clipPathUnits="userSpaceOnUse"
       id="clipPath3958"><path
         d="m 4705.71,4932.82 h 7.7539 v 22.1953 h -7.7539 z"
         id="path3956" /></clipPath><clipPath
       clipPathUnits="userSpaceOnUse"
       id="clipPath3970"><path
         d="m 4625.21,4987.33 h 9.3125 v 33.3242 h -9.3125 z"
         id="path3968" /></clipPath></defs><sodipodi:namedview
     id="namedview4"
     pagecolor="#ffffff"
     bordercolor="#666666"
     borderopacity="1.0"
     inkscape:pageshadow="2"
     inkscape:pageopacity="0.0"
     inkscape:pagecheckerboard="0"
     showgrid="false"
     inkscape:zoom="17.58265"
     inkscape:cx="13.621383"
     inkscape:cy="17.80164"
     inkscape:window-width="1920"
     inkscape:window-height="1017"
     inkscape:window-x="-8"
     inkscape:window-y="-8"
     inkscape:window-maximized="1"
     inkscape:current-layer="g8"
     width="40px"
     scale-x="2.3" /><g
     id="g8"
     inkscape:groupmode="layer"
     inkscape:label="ink_ext_XXXXXX"
     transform="matrix(1.3333333,0,0,-1.3333333,-651.42398,743.83583)"><path
       d="M 0.107813,0.108203 H 538.691 V 567.038 H 0.107813 Z"
       style="fill:none;stroke:#222221;stroke-width:0.216;stroke-linecap:butt;stroke-linejoin:miter;stroke-miterlimit:2.6131;stroke-dasharray:none;stroke-opacity:1"
       id="path22" /><path
       d="m 504.10448,549.00706 c 0,0 3.756,2.468 -0.215,5.08 0,0 -0.644,2.502 -2.289,2.861 0,0 2.432,1.358 4.436,-0.573 2.002,-1.932 1.859,-6.51 -1.932,-7.368"
       style="fill:#8cc5be;fill-opacity:1;fill-rule:nonzero;stroke:none;stroke-width:0.1"
       id="path3802" /><path
       d="m 494.20248,546.05806 c 0,0 4.47,-0.678 6.902,1.896 2.432,2.576 0.393,3.542 -0.107,3.756 0,0 1.072,-1.145 0.07,-2.146 -1.001,-1.002 -1.93,-0.572 -2.789,0.286 -0.858,0.858 -0.715,2.075 0.144,2.933 1.5,1.502 3.075,0.715 4.291,-0.501 1.216,-1.216 1.702,-4.208 -0.68,-6.402 -1.823,-1.681 -3.54,-1.503 -3.54,-1.503 v -0.017 c 0,0 1.717,0.179 3.54,-1.502 2.382,-2.195 1.896,-5.186 0.68,-6.403 -1.216,-1.215 -2.789,-2.002 -4.291,-0.5 -0.859,0.859 -1.002,2.075 -0.144,2.933 0.859,0.858 1.788,1.288 2.79,0.287 1.001,-1.002 -0.072,-2.147 -0.072,-2.147 0.501,0.215 2.539,1.181 0.108,3.756 -2.432,2.574 -6.903,1.896 -6.903,1.896 l 10e-4,3.378"
       style="fill:#8cc5be;fill-opacity:1;fill-rule:nonzero;stroke:none;stroke-width:0.1"
       id="path3804" /><path
       d="m 500.92448,544.36006 c 0,0 2.289,-0.321 4.077,-4.256 0,0 3.649,0.966 5.508,4.256 l 10e-4,0.017 c -1.861,3.292 -5.509,4.256 -5.509,4.256 -1.788,-3.934 -4.077,-4.256 -4.077,-4.256 v -0.017"
       style="fill:#8cc5be;fill-opacity:1;fill-rule:nonzero;stroke:none;stroke-width:0.1"
       id="path3806" /><path
       d="m 496.95248,547.59806 c -0.335,0.336 -0.336,0.88 -10e-4,1.215 0.336,0.335 0.88,0.335 1.215,-10e-4 0.335,-0.335 0.335,-0.878 -10e-4,-1.213 -0.334,-0.335 -0.877,-0.335 -1.213,-10e-4"
       style="fill:#d29c46;fill-opacity:1;fill-rule:nonzero;stroke:none;stroke-width:0.1"
       id="path3808" /><path
       d="m 490.80348,546.25806 c -0.336,0.336 -0.336,0.879 0,1.215 0.334,0.335 0.878,0.335 1.213,0 0.336,-0.336 0.335,-0.879 0,-1.215 -0.335,-0.334 -0.879,-0.335 -1.213,0"
       style="fill:#d29c46;fill-opacity:1;fill-rule:nonzero;stroke:none;stroke-width:0.1"
       id="path3810" /><path
       d="m 490.87448,543.75606 c -0.336,0.335 -0.336,0.879 0,1.213 0.335,0.336 0.879,0.335 1.214,0 0.334,-0.334 0.336,-0.878 0,-1.214 -0.335,-0.335 -0.879,-0.334 -1.214,0.001"
       style="fill:#d29c46;fill-opacity:1;fill-rule:nonzero;stroke:none;stroke-width:0.1"
       id="path3812" /><path
       d="m 490.80348,541.39406 c -0.336,0.336 -0.336,0.879 0,1.215 0.334,0.335 0.877,0.335 1.213,0 0.335,-0.335 0.335,-0.879 0,-1.215 -0.335,-0.334 -0.879,-0.334 -1.213,0"
       style="fill:#d29c46;fill-opacity:1;fill-rule:nonzero;stroke:none;stroke-width:0.1"
       id="path3814" /><path
       d="m 496.95248,540.24606 c -0.335,0.336 -0.335,0.879 0,1.214 0.336,0.335 0.879,0.335 1.213,0 0.336,-0.335 0.336,-0.878 0,-1.214 -0.334,-0.334 -0.877,-0.334 -1.213,0"
       style="fill:#d29c46;fill-opacity:1;fill-rule:nonzero;stroke:none;stroke-width:0.1"
       id="path3816" /><path
       d="m 505.18748,543.04706 c -0.67,0.671 -0.626,1.803 0.101,2.529 0.726,0.726 1.859,0.772 2.529,0.101 0.669,-0.669 0.625,-1.803 -0.1,-2.529 -0.727,-0.726 -1.86,-0.771 -2.53,-0.101"
       style="fill:#8cc5be;fill-opacity:1;fill-rule:nonzero;stroke:none;stroke-width:0.1"
       id="path3818" /><path
       d="m 504.10448,539.10506 c 0,0 3.756,-2.468 -0.215,-5.079 0,0 -0.644,-2.503 -2.289,-2.861 0,0 2.432,-1.358 4.436,0.573 2.002,1.931 1.859,6.509 -1.932,7.367"
       style="fill:#8cc5be;fill-opacity:1;fill-rule:nonzero;stroke:none;stroke-width:0.1"
       id="path3820" /><path
       d="m 501.17448,533.79906 c -0.336,-0.335 -0.336,-0.88 0,-1.214 0.335,-0.336 0.879,-0.336 1.214,10e-4 0.335,0.334 0.335,0.878 0,1.212 -0.335,0.336 -0.879,0.336 -1.214,0.001"
       style="fill:#d29c46;fill-opacity:1;fill-rule:nonzero;stroke:none;stroke-width:0.1"
       id="path3822" /><path
       d="m 507.76448,539.76206 c -0.335,-0.335 -0.336,-0.879 -10e-4,-1.215 0.335,-0.335 0.879,-0.334 1.215,10e-4 0.335,0.335 0.335,0.879 0,1.213 -0.336,0.336 -0.88,0.336 -1.214,10e-4"
       style="fill:#d29c46;fill-opacity:1;fill-rule:nonzero;stroke:none;stroke-width:0.1"
       id="path3824" /><path
       d="m 507.76448,550.05106 c -0.335,-0.335 -0.336,-0.879 -10e-4,-1.215 0.335,-0.335 0.879,-0.334 1.215,10e-4 0.335,0.335 0.335,0.879 0,1.214 -0.336,0.335 -0.88,0.335 -1.214,0"
       style="fill:#d29c46;fill-opacity:1;fill-rule:nonzero;stroke:none;stroke-width:0.1"
       id="path3826" /><path
       d="m 510.02348,548.07206 c -0.335,-0.335 -0.335,-0.879 0,-1.215 0.335,-0.335 0.879,-0.334 1.215,10e-4 0.334,0.335 0.334,0.879 0,1.214 -0.336,0.335 -0.879,0.335 -1.215,0"
       style="fill:#d29c46;fill-opacity:1;fill-rule:nonzero;stroke:none;stroke-width:0.1"
       id="path3828" /><path
       d="m 510.02348,542.23506 c -0.335,-0.336 -0.335,-0.879 0,-1.215 0.335,-0.335 0.879,-0.334 1.215,0.001 0.334,0.335 0.334,0.878 0,1.213 -0.336,0.336 -0.879,0.336 -1.215,10e-4"
       style="fill:#d29c46;fill-opacity:1;fill-rule:nonzero;stroke:none;stroke-width:0.1"
       id="path3830" /><path
       d="m 512.08848,544.97606 c -0.337,-0.335 -0.337,-0.879 0,-1.214 0.334,-0.336 0.877,-0.335 1.213,0 0.336,0.335 0.336,0.879 0,1.214 -0.336,0.335 -0.879,0.335 -1.213,0"
       style="fill:#d29c46;fill-opacity:1;fill-rule:nonzero;stroke:none;stroke-width:0.1"
       id="path3832" /><path
       d="m 501.17448,555.55206 c -0.336,-0.335 -0.336,-0.878 0,-1.215 0.335,-0.335 0.879,-0.334 1.214,0.001 0.335,0.336 0.335,0.879 0,1.214 -0.335,0.335 -0.879,0.335 -1.214,0"
       style="fill:#d29c46;fill-opacity:1;fill-rule:nonzero;stroke:none;stroke-width:0.1"
       id="path3834" /></g></svg>
